<svg width="32" height="22" viewBox="0 0 32 22" fill="none" xmlns="http://www.w3.org/2000/svg">
<g clip-path="url(#clip0_615_13)">
<path d="M31 8.99878H27.51L21.5725 0.822528C21.3926 0.575492 21.1584 0.372975 20.888 0.23053C20.6176 0.0880845 20.3182 0.00949924 20.0127 0.000808845C19.7072 -0.00788155 19.4038 0.0535542 19.1258 0.180398C18.8477 0.307242 18.6024 0.49612 18.4088 0.732528L16.8025 2.59503L16.7775 2.62378C16.6844 2.7407 16.5662 2.83513 16.4316 2.90003C16.297 2.96493 16.1494 2.99863 16 2.99863C15.8506 2.99863 15.703 2.96493 15.5684 2.90003C15.4338 2.83513 15.3156 2.7407 15.2225 2.62378L15.1975 2.59503L13.5913 0.732528C13.3976 0.49612 13.1523 0.307242 12.8742 0.180398C12.5962 0.0535542 12.2928 -0.00788155 11.9873 0.000808845C11.6818 0.00949924 11.3824 0.0880845 11.112 0.23053C10.8416 0.372975 10.6074 0.575492 10.4275 0.822528L4.49 8.99878H1C0.734784 8.99878 0.48043 9.10414 0.292893 9.29167C0.105357 9.47921 0 9.73356 0 9.99878C0 10.264 0.105357 10.5183 0.292893 10.7059C0.48043 10.8934 0.734784 10.9988 1 10.9988H31C31.2652 10.9988 31.5196 10.8934 31.7071 10.7059C31.8946 10.5183 32 10.264 32 9.99878C32 9.73356 31.8946 9.47921 31.7071 9.29167C31.5196 9.10414 31.2652 8.99878 31 8.99878ZM12.0425 1.99878L12.0662 2.02753L13.6725 3.88878C13.9538 4.23468 14.3087 4.51354 14.7113 4.70506C15.1139 4.89659 15.5541 4.99597 16 4.99597C16.4459 4.99597 16.8861 4.89659 17.2887 4.70506C17.6913 4.51354 18.0462 4.23468 18.3275 3.88878L19.9338 2.02753C19.9413 2.01753 19.9462 2.00878 19.955 1.99878L25.0375 8.99878H6.96125L12.0425 1.99878ZM22.5 12.9988C21.3933 12.999 20.3254 13.4071 19.5006 14.145C18.6757 14.8829 18.1517 15.8989 18.0287 16.9988H13.9712C13.848 15.8999 13.3244 14.8849 12.5005 14.1474C11.6766 13.4099 10.61 13.0016 9.5042 13.0004C8.39843 12.9992 7.33092 13.4052 6.50539 14.1408C5.67985 14.8765 5.1541 15.8904 5.02844 16.989C4.90279 18.0876 5.18604 19.1941 5.82413 20.0971C6.46223 21.0002 7.4105 21.6368 8.48799 21.8853C9.56548 22.1338 10.6967 21.9769 11.6659 21.4445C12.6351 20.9121 13.3743 20.0415 13.7425 18.9988H18.2575C18.5325 19.7766 19.016 20.4638 19.6553 20.9854C20.2945 21.507 21.0648 21.8428 21.8819 21.9561C22.6991 22.0695 23.5317 21.956 24.2888 21.628C25.0458 21.3001 25.6981 20.7704 26.1744 20.0968C26.6507 19.4232 26.9327 18.6316 26.9895 17.8085C27.0463 16.9855 26.8757 16.1627 26.4964 15.43C26.1172 14.6974 25.5438 14.0831 24.839 13.6543C24.1341 13.2255 23.325 12.9988 22.5 12.9988ZM9.5 19.9988C9.00555 19.9988 8.5222 19.8522 8.11107 19.5775C7.69995 19.3028 7.37952 18.9123 7.1903 18.4555C7.00108 17.9987 6.95157 17.496 7.04804 17.0111C7.1445 16.5261 7.3826 16.0806 7.73223 15.731C8.08186 15.3814 8.52732 15.1433 9.01227 15.0468C9.49723 14.9504 9.99989 14.9999 10.4567 15.1891C10.9135 15.3783 11.304 15.6987 11.5787 16.1099C11.8534 16.521 12 17.0043 12 17.4988C12 17.8271 11.9353 18.1522 11.8097 18.4555C11.6841 18.7588 11.4999 19.0344 11.2678 19.2665C11.0356 19.4987 10.76 19.6828 10.4567 19.8085C10.1534 19.9341 9.8283 19.9988 9.5 19.9988ZM22.5 19.9988C22.0055 19.9988 21.5222 19.8522 21.1111 19.5775C20.7 19.3028 20.3795 18.9123 20.1903 18.4555C20.0011 17.9987 19.9516 17.496 20.048 17.0111C20.1445 16.5261 20.3826 16.0806 20.7322 15.731C21.0819 15.3814 21.5273 15.1433 22.0123 15.0468C22.4972 14.9504 22.9999 14.9999 23.4567 15.1891C23.9135 15.3783 24.304 15.6987 24.5787 16.1099C24.8534 16.521 25 17.0043 25 17.4988C25 18.1618 24.7366 18.7977 24.2678 19.2665C23.7989 19.7354 23.163 19.9988 22.5 19.9988Z" fill="#4B6ED5"/>
</g>
<defs>
<clipPath id="clip0_615_13">
<rect width="32" height="22" fill="white"/>
</clipPath>
</defs>
</svg>
